:FULLY-SPECIFIED
:FORCE-ALL-JOINTS-BE-3DOF
:DEGREES
259
root 9.71038 16.7182 -0.282263 8.25177 -7.54074 1.04112
lfemur -31.7308 9.04226 -27.4202
ltibia 36.0312 0 0
lfoot -12.2797 6.87945 0
ltoes -0.172547 0 0
rfemur -8.05715 -1.83185 15.9294
rtibia 61.1487 0 0
rfoot 5.45119 -8.96497 0
rtoes -15.2345 0 0
lowerback -5.66687 1.15268 -2.40447
upperback -1.95228 1.64242 1.4682
thorax 1.05435 0.829121 2.9658
lowerneck -20.4285 -4.80215 -12.8317
upperneck 18.713 -5.79014 13.2294
head 10.1199 -2.12888 6.02016
lclavicle -3.19546e-14 -2.0276e-14 0
lhumerus -36.703 -8.59092 89.2943
lradius 22.6391 0 0
lwrist -2.00751 0 0
lhand -9.41773 -22.3452 0
lfingers 7.12502 0 0
lthumb 16.5443 6.96948 0
rclavicle -3.19546e-14 -2.0276e-14 0
rhumerus -45.9701 9.67144 -86.016
rradius 39.7113 0 0
rwrist -21.7486 0 0
rhand -31.9309 -24.6003 0
rfingers 7.12502 0 0
rthumb -5.18201 -54.5169 0
260
root 9.7378 16.7493 -0.11664 8.08286 -7.40706 1.11554
lfemur -30.5296 8.9467 -27.5432
ltibia 35.3835 0 0
lfoot -12.6576 6.84863 0
ltoes -0.420965 0 0
rfemur -9.66186 -1.94909 16.025
rtibia 62.5981 0 0
rfoot 3.54836 -9.78821 0
rtoes -14.9502 0 0
lowerback -5.61876 0.970609 -2.40842
upperback -1.85805 1.39816 1.53118
thorax 1.14047 0.704448 3.01809
lowerneck -20.5306 -4.69922 -12.6691
upperneck 18.925 -5.65083 13.012
head 10.1811 -2.07388 5.94024
lclavicle -2.51852e-14 -1.28915e-14 0
lhumerus -35.6528 -9.23274 89.3327
lradius 22.8724 0 0
lwrist -1.56214 0 0
lhand -9.85821 -22.5883 0
lfingers 7.12502 0 0
lthumb 16.1201 6.75913 0
rclavicle -2.51852e-14 -1.28915e-14 0
rhumerus -45.9345 9.53947 -85.7053
rradius 39.9572 0 0
rwrist -21.7653 0 0
rhand -31.8216 -24.2432 0
rfingers 7.12502 0 0
rthumb -5.07644 -54.1623 0
261
root 9.77012 16.7862 0.0909523 7.84969 -7.17152 1.19441
lfemur -28.9864 8.77561 -27.6629
ltibia 34.5423 0 0
lfoot -13.1301 6.79209 0
ltoes -0.632141 0 0
rfemur -11.5918 -2.04392 16.1993
rtibia 63.9667 0 0
rfoot 0.993061 -10.4431 0
rtoes -14.845 0 0
lowerback -5.54829 0.724509 -2.41517
upperback -1.72456 1.06789 1.61694
thorax 1.26075 0.535693 3.08984
lowerneck -20.7175 -4.58665 -12.4421
upperneck 19.2436 -5.49856 12.7156
head 10.2903 -2.0145 5.8256
lclavicle -1.3279e-14 -1.48716e-15 0
lhumerus -34.2718 -10.1562 89.3729
lradius 23.1305 0 0
lwrist -0.962953 0 0
lhand -10.4881 -22.99 0
lfingers 7.12502 0 0
lthumb 15.5133 6.40368 0
rclavicle -1.3279e-14 -1.48716e-15 0
rhumerus -45.867 9.26889 -85.2676
rradius 40.29 0 0
rwrist -21.7741 0 0
rhand -31.6862 -23.981 0
rfingers 7.12502 0 0
rthumb -4.94578 -53.9028 0
262
root 9.80144 16.8226 0.298032 7.60827 -6.90434 1.26447
lfemur -27.4302 8.58294 -27.7643
ltibia 33.6877 0 0
lfoot -13.5974 6.72206 0
ltoes -0.797307 0 0
rfemur -13.4809 -2.11841 16.4009
rtibia 65.1389 0 0
rfoot -1.63769 -10.9245 0
rtoes -14.8672 0 0
lowerback -5.47252 0.470472 -2.42137
upperback -1.58571 0.726832 1.70701
thorax 1.3845 0.361413 3.16492
lowerneck -20.9327 -4.48319 -12.2002
upperneck 19.5879 -5.3586 12.4022
head 10.4153 -1.96074 5.70103
lclavicle 6.43735e-16 1.16289e-14 0
lhumerus -32.8686 -11.1456 89.4173
lradius 23.3744 0 0
lwrist -0.334753 0 0
lhand -11.1647 -23.4466 0
lfingers 7.12502 0 0
lthumb 14.8616 5.99654 0
rclavicle 6.43735e-16 1.16289e-14 0
rhumerus -45.7885 8.94426 -84.8043
rradius 40.6348 0 0
rwrist -21.772 0 0
rhand -31.5635 -23.8154 0
rfingers 7.12502 0 0
rthumb -4.82723 -53.7396 0
